<svg width="161" height="44" viewBox="0 0 161 44" fill="none" xmlns="http://www.w3.org/2000/svg">
<path d="M19.0331 2.01636C22.8818 5.59802 24.1531 9.29261 22.9502 13.0668C21.6018 13.4284 20.2935 14.0614 19.171 15.3655C19.1431 14.1843 19.3452 12.6918 19.8522 11.0934C19.181 12.8643 18.8435 14.4589 18.806 15.7772C18.4431 16.1897 18.1789 16.5676 17.9206 17.1118C13.4235 11.8864 20.2185 7.84178 19.0331 2.01636ZM38.1231 13.333C33.6014 21.798 27.1027 23.9784 18.5589 19.8389C17.8289 20.4939 17.2693 21.3164 16.9552 22.3351C16.5068 22.0401 16.3335 21.8739 16.3335 21.8739C17.8306 17.6543 23.0114 17.1884 26.9835 17.3209C22.5956 16.8247 19.4539 17.423 17.5222 19.0122C22.5047 8.34178 30.5731 17.0193 38.1231 13.333Z" fill="#7ED957"/>
<path d="M13.1532 13.6462C13.1532 13.6462 13.1916 13.7025 13.2666 13.81C13.3416 13.9183 13.452 14.08 13.6037 14.2825C13.7512 14.4879 13.9432 14.7342 14.1753 15.0175C14.2932 15.1583 14.417 15.3104 14.5566 15.4675C14.6257 15.5467 14.6962 15.6283 14.7695 15.7125C14.8437 15.795 14.9207 15.8796 14.9995 15.9675C15.6312 16.6667 16.4407 17.4729 17.3766 18.4062C18.3062 19.3454 19.3778 20.4071 20.3787 21.7717C20.502 21.9433 20.6249 22.1196 20.7441 22.3012C20.8595 22.4862 20.982 22.6687 21.0899 22.8654C21.3191 23.2496 21.5187 23.6662 21.7057 24.0996C21.7895 24.32 21.8845 24.5396 21.952 24.7725C21.9878 24.8883 22.0295 25.0025 22.0591 25.1212C22.0895 25.2404 22.1195 25.3596 22.1499 25.4787C22.2578 25.9608 22.3412 26.4608 22.3637 26.9708L22.3749 27.1629L22.3778 27.2108L22.3791 27.235V27.365C22.3803 27.4821 22.3803 27.6 22.3812 27.7175V27.7621L22.3737 27.9108L22.3637 28.1104L22.3528 28.3108L22.3337 28.5042C22.2903 29.0204 22.1945 29.5387 22.0707 30.0558C21.9487 30.5742 21.7724 31.085 21.5632 31.5875C21.3553 32.0908 21.1007 32.5808 20.8091 33.0529C19.6524 34.9479 17.8203 36.5333 15.6262 37.3867C15.0787 37.5996 14.5124 37.77 13.9337 37.895C13.3545 38.0171 12.7632 38.0887 12.1695 38.1133L11.9466 38.1192L11.8353 38.1225L11.7791 38.1237C11.7932 38.1246 11.7291 38.1237 11.7266 38.1237L11.7012 38.1229L11.297 38.1142C11.2345 38.1142 11.1499 38.1062 11.0737 38.1012L10.8399 38.085C10.7632 38.0779 10.682 38.0754 10.6087 38.065L10.3866 38.0375C9.79491 37.9629 9.20532 37.8462 8.63282 37.6708C6.33991 36.9792 4.29866 35.4979 2.95783 33.565C2.61949 33.0846 2.31783 32.5804 2.06658 32.055C1.81616 31.5292 1.60824 30.9871 1.44366 30.4362C1.28241 29.8833 1.16866 29.3225 1.09449 28.7612C1.07866 28.6208 1.06283 28.4808 1.04699 28.3404C1.03866 28.1996 1.03033 28.0596 1.02199 27.9196C1.01116 27.7796 1.01449 27.6396 1.01241 27.5L1.01116 27.2912L1.01074 27.2392C1.01199 27.17 1.01199 27.2062 1.01241 27.1846L1.01866 27.0654C1.03366 26.81 1.04283 26.5633 1.06158 26.3033C1.09283 26.0292 1.12324 25.7554 1.15366 25.4833C1.19158 25.2171 1.24116 24.9629 1.28449 24.705L1.31908 24.5125L1.36241 24.3233C1.39158 24.1979 1.42074 24.0721 1.44991 23.9475C1.47991 23.8229 1.50699 23.6979 1.53908 23.5742C1.57366 23.4525 1.60824 23.3304 1.64283 23.2087C1.71366 22.9667 1.77574 22.7229 1.85866 22.4892C1.93783 22.2542 2.01324 22.0192 2.09408 21.7883C2.18158 21.5604 2.26783 21.3337 2.35408 21.1092C2.39616 20.9958 2.44241 20.8858 2.48991 20.7762C2.53658 20.6671 2.58324 20.5579 2.62991 20.4492C2.67658 20.3404 2.72283 20.2325 2.76866 20.1246C2.81824 20.0183 2.86741 19.9129 2.91616 19.8075C3.01574 19.5975 3.11032 19.3871 3.21158 19.1825C3.31533 18.9796 3.41824 18.7783 3.51991 18.5787C3.61991 18.3779 3.73241 18.1867 3.83657 17.9933C3.94241 17.8004 4.04532 17.6087 4.15616 17.4242C4.26491 17.2383 4.37241 17.0542 4.47866 16.8721C4.58741 16.6917 4.69907 16.515 4.80824 16.34C5.68241 14.9383 6.58032 13.7267 7.40366 12.6808C8.23282 11.6383 8.99824 10.7675 9.64574 10.0692C10.2912 9.36832 10.8282 8.84666 11.1924 8.49082C11.3745 8.31332 11.5195 8.18207 11.6162 8.09291C11.7141 8.00457 11.7645 7.95874 11.7645 7.95874C11.7645 7.95874 11.7216 8.01166 11.6395 8.11416C11.5587 8.21791 11.4382 8.37166 11.2816 8.57166C10.9687 8.97166 10.5224 9.56874 9.97032 10.3358C9.42032 11.105 8.76574 12.0467 8.05991 13.1512C7.71157 13.7067 7.33741 14.2946 6.97199 14.93C6.78407 15.2446 6.60366 15.5737 6.41199 15.9067C6.32074 16.0754 6.22824 16.2458 6.13449 16.4187C6.08824 16.5046 6.04116 16.5912 5.99366 16.6787C5.94866 16.7667 5.90324 16.8554 5.85741 16.9442C5.11782 18.3625 4.39991 19.9387 3.83074 21.65C3.54491 22.505 3.30824 23.3954 3.13574 24.3096C3.04491 24.7658 2.98824 25.2325 2.93283 25.6946C2.91574 25.9192 2.89908 26.145 2.88157 26.3712C2.87324 26.6146 2.87366 26.8737 2.86949 27.1258L2.86783 27.245C2.86824 27.2396 2.86699 27.2917 2.86824 27.2383L2.87866 27.455C2.88533 27.5704 2.88616 27.6862 2.90033 27.8012C2.91158 27.9167 2.92283 28.0321 2.93407 28.1479C2.95033 28.2625 2.96699 28.3779 2.98366 28.4933C3.05824 28.9529 3.16449 29.41 3.30866 29.8579C3.45741 30.3046 3.63949 30.7417 3.85574 31.1642C4.06741 31.5887 4.32074 31.9946 4.60282 32.3808C4.88532 32.7662 5.19866 33.1312 5.53991 33.47C5.88491 33.805 6.25366 34.1167 6.64574 34.3975C7.42741 34.9633 8.31032 35.3875 9.23366 35.6667C9.69407 35.8117 10.1695 35.9075 10.6478 35.9708L10.8274 35.9946C10.8878 36.0033 10.942 36.0042 10.9995 36.01L11.1695 36.0242C11.2274 36.0283 11.2774 36.0354 11.3495 36.0358L11.7541 36.0471L12.0932 36.04C12.5749 36.0212 13.0545 35.9704 13.5257 35.8817C13.9962 35.7875 14.4578 35.6575 14.9053 35.4925C15.3537 35.3296 15.7845 35.1233 16.1962 34.8892C16.6091 34.6558 17.0037 34.3933 17.372 34.1004C18.1045 33.51 18.7449 32.8175 19.2557 32.0521C19.5132 31.6712 19.7416 31.2729 19.9307 30.8617C20.1195 30.45 20.2895 30.0317 20.4132 29.6029C20.5387 29.1754 20.6432 28.7442 20.7007 28.31L20.7257 28.1483L20.7416 27.9925L20.7666 27.76L20.7712 27.7212L20.7737 27.6771C20.7799 27.5592 20.7866 27.4417 20.7928 27.3246L20.7978 27.2371C20.7982 27.2387 20.7987 27.2025 20.7987 27.235V27.0179C20.8074 26.5962 20.7632 26.1825 20.6995 25.7767C20.6807 25.6758 20.6616 25.575 20.6428 25.475C20.6245 25.3737 20.5945 25.2762 20.5712 25.1775C20.5266 24.9783 20.4599 24.7862 20.4028 24.5925C20.1445 23.8258 19.7816 23.1092 19.3774 22.4425C18.9724 21.7754 18.5237 21.16 18.082 20.5796C17.6403 19.9987 17.1953 19.4596 16.7807 18.9462C15.947 17.9229 15.2212 17.0146 14.6741 16.2292C14.1207 15.4479 13.7445 14.7962 13.502 14.3458C13.3774 14.1221 13.2974 13.9446 13.2399 13.8262C13.1824 13.7075 13.1532 13.6462 13.1532 13.6462Z" fill="#5CE1E6"/>
<path d="M12.7635 17.3774C12.7635 17.3774 12.841 17.4858 12.9869 17.6891C13.1356 17.8883 13.3573 18.1762 13.6581 18.527C13.9585 18.8783 14.3414 19.2862 14.7935 19.7441C15.2452 20.2029 15.7677 20.7091 16.3298 21.2824C16.8881 21.8587 17.491 22.5016 18.0439 23.2812C18.3202 23.6699 18.5764 24.0979 18.796 24.5641C19.016 25.0299 19.1865 25.5408 19.2914 26.077C19.3152 26.2112 19.3435 26.3462 19.3564 26.4833C19.3727 26.6204 19.3914 26.7579 19.3944 26.8966L19.4039 27.1054L19.4052 27.1316L19.406 27.1445C19.4064 27.1362 19.406 27.1716 19.406 27.1716L19.4056 27.2191L19.4048 27.3149L19.4031 27.5062C19.4019 27.572 19.3964 27.6479 19.3923 27.7183L19.3794 27.9345L19.3564 28.142C19.3485 28.2116 19.3423 28.2816 19.3319 28.3504L19.2985 28.5583C19.2535 28.8362 19.1856 29.1112 19.1081 29.3845C18.7952 30.4779 18.2102 31.5091 17.4339 32.3637C16.651 33.2112 15.6798 33.8879 14.6194 34.2937L14.421 34.3695C14.3544 34.3937 14.2869 34.4149 14.2202 34.437C14.1531 34.4583 14.0864 34.4824 14.0194 34.5016L13.8156 34.5574C13.5448 34.6299 13.2702 34.6824 12.9964 34.7241C12.8598 34.7458 12.7219 34.7566 12.586 34.7733C12.4489 34.7854 12.3123 34.7908 12.176 34.7995C12.0398 34.8033 11.9039 34.8033 11.7689 34.8033C11.6389 34.7966 11.5094 34.7908 11.3802 34.7841C11.2423 34.7708 11.1035 34.7587 10.9685 34.7433C10.8373 34.7233 10.7064 34.7054 10.5769 34.6829C10.4485 34.6558 10.3198 34.6329 10.1931 34.6029C10.0677 34.5691 9.94187 34.5395 9.81895 34.502C9.32687 34.3545 8.86103 34.1633 8.43312 33.932C7.5752 33.4708 6.86687 32.8687 6.32853 32.2279C6.05978 31.9062 5.82853 31.5791 5.63437 31.2533C5.44187 30.927 5.28687 30.6029 5.1602 30.2924C4.91187 29.6683 4.78687 29.0979 4.72478 28.6283C4.65978 28.1579 4.6702 27.7854 4.67228 27.5354C4.6777 27.4099 4.68687 27.3137 4.69062 27.2491C4.6952 27.1849 4.6977 27.1512 4.6977 27.1512C4.6977 27.1512 4.71395 27.2837 4.74437 27.5316C4.78187 27.7774 4.84437 28.1362 4.96853 28.577C5.09437 29.0174 5.29687 29.5354 5.59728 30.0841C5.75312 30.3558 5.92687 30.6387 6.13853 30.9154C6.34978 31.192 6.5877 31.4683 6.85978 31.7316C7.39978 32.2604 8.07353 32.7366 8.8502 33.0841C9.23895 33.2566 9.65145 33.4012 10.084 33.4995C10.1915 33.5254 10.3014 33.5429 10.411 33.5658C10.521 33.5862 10.6323 33.6004 10.7435 33.6183C10.8556 33.6316 10.9685 33.6412 11.0814 33.6533C11.1902 33.6591 11.2998 33.6649 11.4094 33.6708C11.5289 33.6708 11.6481 33.6708 11.7681 33.6708C11.8835 33.6649 11.9994 33.6591 12.1152 33.6537C12.231 33.6416 12.3469 33.6333 12.4627 33.6183C12.5777 33.5999 12.6939 33.5874 12.8094 33.5645C13.0394 33.5208 13.2694 33.4687 13.4956 33.3991L13.6656 33.3487C13.7223 33.3312 13.7777 33.3095 13.834 33.2908C13.8898 33.2708 13.9464 33.252 14.0019 33.2308L14.1669 33.1633C15.0481 32.7987 15.8585 32.2295 16.5114 31.5154C16.8402 31.1595 17.1256 30.7649 17.3664 30.3474C17.6048 29.9283 17.8073 29.4891 17.9473 29.032C18.0169 28.8037 18.0781 28.5729 18.1227 28.3404L18.1573 28.1662C18.1685 28.1079 18.1752 28.0491 18.1844 27.9904L18.2102 27.8158L18.226 27.6474C18.231 27.5899 18.2381 27.5387 18.2414 27.4766L18.2498 27.2854L18.256 27.1424C18.256 27.1354 18.256 27.1624 18.256 27.1458L18.2556 27.1354L18.2552 27.1137L18.2531 26.9424C18.2548 26.8283 18.2444 26.7149 18.2369 26.602C18.2327 26.4887 18.2135 26.377 18.1994 26.2658C18.0719 25.3737 17.7098 24.5424 17.2581 23.7979C16.8064 23.0512 16.2823 22.3812 15.7894 21.7637C15.2939 21.1466 14.8269 20.5804 14.4306 20.0612C14.0319 19.5449 13.709 19.072 13.459 18.6745C13.2044 18.2799 13.041 17.9466 12.9248 17.7254C12.8198 17.4987 12.7635 17.3774 12.7635 17.3774Z" fill="#7ED957"/>
<path d="M57.2 28.275C57.3167 28.5083 57.375 28.7417 57.375 28.975C57.375 29.375 57.2083 29.7083 56.875 29.975C56.5417 30.2417 56.1333 30.375 55.65 30.375C55 30.375 54.4667 30.125 54.05 29.625C53.6333 29.1083 53.2917 28.45 53.025 27.65L52.05 24.575C51.85 24.025 51.625 23.575 51.375 23.225C51.125 22.8583 50.75 22.55 50.25 22.3C49.75 22.05 49.075 21.925 48.225 21.925H47.625L47.65 27C47.65 28.2333 47.7667 29.1583 48 29.775C47.6 30.125 47.1583 30.3 46.675 30.3C46.275 30.3 45.95 30.1917 45.7 29.975C45.4667 29.7417 45.35 29.4333 45.35 29.05V15.7C45.35 14.5333 45.2333 13.6 45 12.9C45.1333 12.7667 45.3083 12.65 45.525 12.55C45.7583 12.45 46.0167 12.4 46.3 12.4C46.7 12.4 47.0167 12.5083 47.25 12.725C47.4833 12.9417 47.6 13.2417 47.6 13.625L47.625 20.95L48.325 20.85C49.375 20.7 50.275 20.2917 51.025 19.625C51.7917 18.9417 52.3667 18.15 52.75 17.25C53.15 16.35 53.35 15.4833 53.35 14.65C53.35 13.8333 53.2 13.1917 52.9 12.725C53.1167 12.625 53.2917 12.55 53.425 12.5C53.575 12.45 53.7417 12.425 53.925 12.425C54.375 12.425 54.7667 12.6 55.1 12.95C55.4333 13.2833 55.6 13.8667 55.6 14.7C55.6 16 55.1833 17.25 54.35 18.45C53.5167 19.65 52.2583 20.5667 50.575 21.2C51.5417 21.3333 52.2917 21.625 52.825 22.075C53.375 22.525 53.8 23.1417 54.1 23.925L55.275 27.15C55.4917 27.6667 55.6917 28.025 55.875 28.225C56.0583 28.425 56.2667 28.5333 56.5 28.55H56.6C56.8333 28.55 57.0333 28.4583 57.2 28.275ZM61.0199 15.125C60.6033 15.125 60.2533 14.9833 59.9699 14.7C59.6866 14.4167 59.5449 14.075 59.5449 13.675C59.5449 13.2583 59.6866 12.9083 59.9699 12.625C60.2533 12.3417 60.6033 12.2 61.0199 12.2C61.4199 12.2 61.7616 12.3417 62.0449 12.625C62.3283 12.9083 62.4699 13.2583 62.4699 13.675C62.4699 14.075 62.3283 14.4167 62.0449 14.7C61.7616 14.9833 61.4199 15.125 61.0199 15.125ZM62.2449 27C62.2449 28.2333 62.3616 29.1583 62.5949 29.775C62.2449 30.125 61.8116 30.3 61.2949 30.3C60.9283 30.3 60.6199 30.1917 60.3699 29.975C60.1366 29.7417 60.0199 29.4333 60.0199 29.05L59.9949 20.225C59.9949 18.975 59.8783 18.0417 59.6449 17.425C60.0783 17.0917 60.5116 16.925 60.9449 16.925C61.3283 16.925 61.6366 17.0333 61.8699 17.25C62.1033 17.4667 62.2199 17.7667 62.2199 18.15L62.2449 27ZM69.9623 30.325C68.3956 30.325 67.2206 30.05 66.4373 29.5C65.654 28.95 65.2623 28.225 65.2623 27.325C65.2623 26.8917 65.3706 26.5333 65.5873 26.25C65.8206 25.9667 66.179 25.825 66.6623 25.825C66.7456 25.825 66.8873 25.8417 67.0873 25.875C67.0373 26.0917 67.0123 26.3 67.0123 26.5C67.0123 26.7 67.0206 26.8583 67.0373 26.975C67.0873 27.6917 67.3873 28.2667 67.9373 28.7C68.4873 29.1167 69.2373 29.325 70.1873 29.325C71.0706 29.325 71.779 29.1667 72.3123 28.85C72.8623 28.5167 73.1373 28.05 73.1373 27.45C73.1373 27.0333 73.0206 26.6833 72.7873 26.4C72.5706 26.1 72.2873 25.85 71.9373 25.65C71.604 25.45 71.129 25.2083 70.5123 24.925L69.7373 24.575C68.8206 24.1417 68.1123 23.775 67.6123 23.475C67.1123 23.1583 66.679 22.7333 66.3123 22.2C65.9456 21.6667 65.7623 21.0083 65.7623 20.225C65.7623 19.1083 66.1873 18.275 67.0373 17.725C67.904 17.175 69.004 16.9 70.3373 16.9C71.7206 16.9 72.804 17.1167 73.5873 17.55C74.3706 17.9833 74.7623 18.6 74.7623 19.4C74.7623 19.7333 74.6706 20.0167 74.4873 20.25C74.3206 20.4667 74.054 20.5917 73.6873 20.625C73.604 20.6417 73.4873 20.65 73.3373 20.65C73.1706 20.65 73.0373 20.6333 72.9373 20.6C72.954 20.5167 72.9623 20.3667 72.9623 20.15C72.9623 19.8833 72.929 19.6583 72.8623 19.475C72.7956 18.9583 72.529 18.5667 72.0623 18.3C71.6123 18.0167 71.0123 17.875 70.2623 17.875C69.5623 17.875 68.979 18.0083 68.5123 18.275C68.0623 18.5417 67.8373 18.9583 67.8373 19.525C67.8373 20.0083 67.9706 20.425 68.2373 20.775C68.5206 21.125 68.854 21.4167 69.2373 21.65C69.6206 21.8667 70.2123 22.1667 71.0123 22.55L71.4873 22.775C72.3206 23.175 72.979 23.525 73.4623 23.825C73.9623 24.125 74.3873 24.5083 74.7373 24.975C75.0873 25.4417 75.2623 26.0083 75.2623 26.675C75.2623 27.675 74.8373 28.5333 73.9873 29.25C73.154 29.9667 71.8123 30.325 69.9623 30.325ZM89.4305 28.025C89.6138 28.2917 89.7055 28.575 89.7055 28.875C89.7055 29.2583 89.5221 29.5833 89.1555 29.85C88.8055 30.1167 88.3721 30.25 87.8555 30.25C87.0888 30.25 86.5138 29.9833 86.1305 29.45C85.7471 28.9167 85.5555 28.0833 85.5555 26.95V26.55C85.0388 27.6833 84.3221 28.5917 83.4055 29.275C82.4888 29.9417 81.4638 30.275 80.3305 30.275C79.3638 30.275 78.5971 30.0167 78.0305 29.5C77.4638 28.9667 77.1805 28.2583 77.1805 27.375C77.1805 26.375 77.5638 25.5333 78.3305 24.85C79.0971 24.15 80.1055 23.625 81.3555 23.275C82.6888 22.925 84.0471 22.775 85.4305 22.825V22.2C85.4305 20.7167 85.1971 19.625 84.7305 18.925C84.2805 18.225 83.5221 17.875 82.4555 17.875C81.7721 17.875 81.1971 18.0333 80.7305 18.35C80.2638 18.6667 80.0305 19.175 80.0305 19.875C80.0305 20.2417 80.1138 20.6 80.2805 20.95C80.4638 21.2833 80.7305 21.5167 81.0805 21.65C80.7805 22 80.3388 22.175 79.7555 22.175C79.1555 22.175 78.6721 21.9583 78.3055 21.525C77.9388 21.075 77.7555 20.55 77.7555 19.95C77.7555 18.9833 78.1888 18.2417 79.0555 17.725C79.9388 17.1917 81.1388 16.925 82.6555 16.925C84.4055 16.925 85.6888 17.3583 86.5055 18.225C87.3388 19.0917 87.7555 20.4583 87.7555 22.325V27.175C87.7555 28.0583 88.0471 28.5 88.6305 28.5C88.7638 28.5 88.9055 28.4583 89.0555 28.375C89.2055 28.2917 89.3305 28.175 89.4305 28.025ZM81.3055 28.725C81.9221 28.725 82.5555 28.4917 83.2055 28.025C83.8555 27.5417 84.3971 26.9167 84.8305 26.15C85.2638 25.3667 85.4888 24.5417 85.5055 23.675C84.8888 23.6417 84.2388 23.675 83.5555 23.775C82.8721 23.8583 82.2971 24 81.8305 24.2C81.1305 24.4667 80.5888 24.825 80.2055 25.275C79.8388 25.725 79.6555 26.2583 79.6555 26.875C79.6555 27.4083 79.7888 27.85 80.0555 28.2C80.3221 28.55 80.7388 28.725 81.3055 28.725ZM103.249 28.025C103.432 28.2917 103.524 28.575 103.524 28.875C103.524 29.2583 103.34 29.5833 102.974 29.85C102.624 30.1167 102.19 30.25 101.674 30.25C100.907 30.25 100.332 29.9833 99.9488 29.45C99.5655 28.9167 99.3738 28.0833 99.3738 26.95V26.55C98.8572 27.6833 98.1405 28.5917 97.2238 29.275C96.3072 29.9417 95.2822 30.275 94.1488 30.275C93.1822 30.275 92.4155 30.0167 91.8488 29.5C91.2822 28.9667 90.9988 28.2583 90.9988 27.375C90.9988 26.375 91.3822 25.5333 92.1488 24.85C92.9155 24.15 93.9238 23.625 95.1738 23.275C96.5072 22.925 97.8655 22.775 99.2488 22.825V22.2C99.2488 20.7167 99.0155 19.625 98.5488 18.925C98.0988 18.225 97.3405 17.875 96.2738 17.875C95.5905 17.875 95.0155 18.0333 94.5488 18.35C94.0822 18.6667 93.8488 19.175 93.8488 19.875C93.8488 20.2417 93.9322 20.6 94.0988 20.95C94.2822 21.2833 94.5488 21.5167 94.8988 21.65C94.5988 22 94.1572 22.175 93.5738 22.175C92.9738 22.175 92.4905 21.9583 92.1238 21.525C91.7572 21.075 91.5738 20.55 91.5738 19.95C91.5738 18.9833 92.0072 18.2417 92.8738 17.725C93.7572 17.1917 94.9572 16.925 96.4738 16.925C98.2238 16.925 99.5072 17.3583 100.324 18.225C101.157 19.0917 101.574 20.4583 101.574 22.325V27.175C101.574 28.0583 101.865 28.5 102.449 28.5C102.582 28.5 102.724 28.4583 102.874 28.375C103.024 28.2917 103.149 28.175 103.249 28.025ZM95.1238 28.725C95.7405 28.725 96.3738 28.4917 97.0238 28.025C97.6738 27.5417 98.2155 26.9167 98.6488 26.15C99.0822 25.3667 99.3072 24.5417 99.3238 23.675C98.7072 23.6417 98.0572 23.675 97.3738 23.775C96.6905 23.8583 96.1155 24 95.6488 24.2C94.9488 24.4667 94.4072 24.825 94.0238 25.275C93.6572 25.725 93.4738 26.2583 93.4738 26.875C93.4738 27.4083 93.6072 27.85 93.8738 28.2C94.1405 28.55 94.5572 28.725 95.1238 28.725ZM116.292 27C116.326 28.2833 116.451 29.2083 116.667 29.775C116.284 30.125 115.851 30.3 115.367 30.3C114.984 30.3 114.667 30.1917 114.417 29.975C114.167 29.7417 114.042 29.4333 114.042 29.05V22.4C114.026 20.9667 113.834 19.9083 113.467 19.225C113.101 18.5417 112.476 18.2 111.592 18.2C111.026 18.2 110.484 18.4083 109.967 18.825C109.467 19.225 109.051 19.8583 108.717 20.725C108.401 21.5917 108.242 22.6833 108.242 24C108.242 26.0833 108.259 27.45 108.292 28.1C108.326 28.75 108.434 29.3167 108.617 29.8C108.484 29.9333 108.301 30.05 108.067 30.15C107.851 30.25 107.601 30.3 107.317 30.3C106.917 30.3 106.592 30.1833 106.342 29.95C106.109 29.7 105.992 29.3667 105.992 28.95V19.975C105.976 19.5083 105.909 19.1833 105.792 19C105.692 18.8 105.526 18.7 105.292 18.7C104.976 18.7 104.759 18.8167 104.642 19.05C104.442 18.7667 104.342 18.4917 104.342 18.225C104.342 17.8417 104.484 17.5333 104.767 17.3C105.051 17.0667 105.442 16.95 105.942 16.95C106.609 16.95 107.117 17.1833 107.467 17.65C107.834 18.1 108.017 18.7667 108.017 19.65V19.95C108.367 18.9833 108.909 18.2417 109.642 17.725C110.376 17.1917 111.251 16.925 112.267 16.925C114.951 16.925 116.292 18.65 116.292 22.1V27Z" fill="#7ED957"/>
<path d="M124.965 12.325C127.415 12.325 129.232 12.7417 130.415 13.575C131.615 14.3917 132.215 15.6833 132.215 17.45C132.215 19.3167 131.565 20.7333 130.265 21.7C128.982 22.65 127.074 23.125 124.54 23.125H123.89V27.1C123.89 27.5333 123.915 28.0083 123.965 28.525C124.015 29.025 124.107 29.4417 124.24 29.775C124.107 29.9083 123.924 30.025 123.69 30.125C123.457 30.2417 123.199 30.3 122.915 30.3C122.515 30.3 122.19 30.1917 121.94 29.975C121.707 29.7417 121.59 29.4333 121.59 29.05V15.7C121.59 15.3167 121.557 14.85 121.49 14.3C121.44 13.7333 121.357 13.2667 121.24 12.9C122.04 12.5167 123.282 12.325 124.965 12.325ZM124.565 22.175C126.349 22.175 127.649 21.7917 128.465 21.025C129.299 20.2417 129.715 19.1 129.715 17.6C129.715 16.1667 129.332 15.0917 128.565 14.375C127.815 13.6583 126.599 13.3 124.915 13.3C124.382 13.3 124.04 13.3167 123.89 13.35V22.175H124.565ZM140.927 16.925C141.793 16.925 142.493 17.1667 143.027 17.65C143.577 18.1167 143.852 18.7583 143.852 19.575C143.852 20.1583 143.685 20.6333 143.352 21C143.018 21.3667 142.618 21.55 142.152 21.55C141.735 21.55 141.435 21.4417 141.252 21.225C141.435 20.9417 141.56 20.6833 141.627 20.45C141.693 20.2167 141.727 19.9417 141.727 19.625C141.727 18.625 141.268 18.125 140.352 18.125C139.635 18.125 139.035 18.6083 138.552 19.575C138.085 20.5417 137.852 22.0167 137.852 24C137.852 26.05 137.868 27.4 137.902 28.05C137.935 28.6833 138.043 29.2417 138.227 29.725C138.093 29.8583 137.91 29.975 137.677 30.075C137.46 30.175 137.202 30.2333 136.902 30.25C136.535 30.25 136.227 30.1333 135.977 29.9C135.727 29.65 135.602 29.3167 135.602 28.9V19.975C135.602 19.525 135.543 19.2 135.427 19C135.327 18.8 135.152 18.7 134.902 18.7C134.585 18.7 134.368 18.8167 134.252 19.05C134.052 18.7667 133.952 18.4917 133.952 18.225C133.952 17.8417 134.093 17.5333 134.377 17.3C134.66 17.0667 135.052 16.95 135.552 16.95C136.218 16.95 136.727 17.1917 137.077 17.675C137.443 18.1417 137.618 18.8333 137.602 19.75C137.885 18.8333 138.31 18.1333 138.877 17.65C139.443 17.1667 140.127 16.925 140.927 16.925ZM151.408 30.325C149.575 30.325 148.142 29.7417 147.108 28.575C146.092 27.3917 145.583 25.75 145.583 23.65C145.583 21.5333 146.092 19.8833 147.108 18.7C148.142 17.5167 149.575 16.925 151.408 16.925C153.242 16.925 154.667 17.5167 155.683 18.7C156.7 19.8833 157.208 21.5333 157.208 23.65C157.208 25.75 156.7 27.3917 155.683 28.575C154.667 29.7417 153.242 30.325 151.408 30.325ZM151.408 29.375C152.508 29.375 153.342 28.8833 153.908 27.9C154.492 26.9167 154.783 25.5 154.783 23.65C154.783 21.7667 154.492 20.3333 153.908 19.35C153.342 18.3667 152.508 17.875 151.408 17.875C150.292 17.875 149.442 18.3667 148.858 19.35C148.292 20.3333 148.008 21.7667 148.008 23.65C148.008 25.5 148.292 26.9167 148.858 27.9C149.442 28.8833 150.292 29.375 151.408 29.375Z" fill="#5CE1E6"/>
</svg>
